#!OML:ASF E:/inclinewalkrobotboard/Project1/Captureday1/Session1/subject1.ASF
:FULLY-SPECIFIED
:DEGREES
351
root 0 0 0 -2.155484865376655 -4.755682508233685 -5.999794679452069
lowerback 10.48274835516758 1.9644176701503673 4.910378192205238
upperback 0.48804846489373777 3.2700896632569827 1.6906126039306435
thorax -5.239617501382545 1.5208084916374347 -1.4368549591098663
lowerneck -17.015747310424665 -3.2236665430730786 -1.6018437474971847
upperneck 19.225880025260132 -4.161236358811827 0.6118309707233633
head 8.896092277402325 -1.9907575539634765 -0.05560347343129379
rclavicle -4.966054303205665E-16 -3.051572652605744E-16
rhumerus -28.77006089972478 -17.71300388600708 -78.00412249428928
rradius 26.95579872634946
rwrist 4.447396794769373
rhand -17.72759684472016 22.264954641715068
rfingers 7.1250200000000214
rthumb 8.525806931429377 -7.548082310015982
lclavicle -6.722890694371098E-16 -1.966064942963692E-16
lhumerus -30.077363115790046 -1.7855099572455622 82.28109975624125
lradius 32.83879373295203
lwrist 5.723066738740302
lhand -25.466111718090467 23.970650510240098
lfingers 7.123732789917192
lthumb 1.046983366758969 53.54721149616938
rfemur -2.831241533164043 7.644250049894097 31.141965167510502
rtibia 26.80684692812155
rfoot -14.303810507558238 -5.952635300294945
rtoes 2.335799868815055
lfemur -18.481700677320177 -1.1964026392619398 -14.511255462131068
ltibia 40.22711331892653
lfoot -3.559403599992688 -1.9350387039265318
ltoes -3.766833841647351
352
root 0 0 0 -2.1659987099306344 -4.791661562748798 -5.924812534987647
lowerback 10.478186942031659 1.9425595224964098 4.829378034656317
upperback 0.502009499915717 3.2315211064918703 1.6766280591610179
thorax -5.223239824506539 1.5030210485099413 -1.4012968794658383
lowerneck -16.949355040138638 -3.2180803485771188 -1.6324005179250447
upperneck 19.185023131673915 -4.154565586861783 0.6468244681486253
head 8.873375503596845 -1.988694370428047 -0.03706680499034265
rclavicle -4.847744457542115E-16 -3.132945533263797E-16
rhumerus -28.93695823995335 -17.86759928814392 -78.03916110530318
rradius 26.803125937791997
rwrist 4.4124511107375515
rhand -17.69984334085612 22.386115130992852
rfingers 7.125020000000022
rthumb 8.551263981064697 -7.42917116413366
lclavicle -6.637265392379691E-16 -1.9801563128638632E-16
lhumerus -30.16492074999089 -1.685478610191602 82.28518506294762
lradius 32.6462642427154
lwrist 5.702418343692893
lhand -25.522720575393045 23.935334423312714
lfingers 7.123794670022093
lthumb 0.9934656737314871 53.532562437391626
rfemur -3.629306616821598 7.340869668185556 30.687767931142403
rtibia 28.534561726516905
rfoot -13.512638549988708 -5.889975595490435
rtoes 2.6533059325070223
lfemur -16.244128110552072 -1.606909760906165 -15.8085793729363
ltibia 36.71714822295258
lfoot -5.41329792896489 -1.1164021471282162
ltoes -3.5365608550200687
353
root 0 0 0 -2.1763297463585247 -4.803629591299908 -5.849529203301276
lowerback 10.47408141795379 1.9174562361082357 4.74726753904982
upperback 0.5126379466540354 3.1886302043827515 1.6660108494738992
thorax -5.210488073709008 1.4833276126936465 -1.3610090758252786
lowerneck -16.89883698686721 -3.2116744505499235 -1.6570401346294554
upperneck 19.156007216260054 -4.145811999875559 0.6719592413773725
head 8.856451433307349 -1.9857622255552472 -0.022987662858096947
rclavicle -4.745687790973979E-16 -3.1857353683993723E-16
rhumerus -29.06435854452558 -17.985478782107236 -78.06493779609713
rradius 26.688910849226993
rwrist 4.386003791978386
rhand -17.679017967852843 22.47797403815825
rfingers 7.125020000000024
rthumb 8.570417227763413 -7.339075157923769
lclavicle -6.595833218780208E-16 -1.9648905060574927E-16
lhumerus -30.203333224966922 -1.6348496048194114 82.28481549107401
lradius 32.55454412555269
lwrist 5.693201915434477
lhand -25.550644845707314 23.919717329099164
lfingers 7.123843601522185
lthumb 0.9674887209947975 53.52660659581432
rfemur -4.753181366392129 6.833663751603703 30.111703248996406
rtibia 31.260729200043464
rfoot -12.228628386610005 -5.734437407908473
rtoes 3.2959055094022283
lfemur -13.36726838372116 -2.065125916698307 -17.429520307028547
ltibia 32.718998258107895
lfoot -7.571476966639539 -0.26704769547237905
ltoes -3.3229485108253782
354
root 0 0 0 -2.1874442493748742 -4.810596005265548 -5.7682658731467535
lowerback 10.469609343947885 1.8897809947370585 4.6581381241150925
upperback 0.5231255711636211 3.141484837872873 1.6553113919837457
thorax -5.197655693479454 1.4617024812644246 -1.3164054834011143
lowerneck -16.848591783336488 -3.2047795953982448 -1.6821723097317625
upperneck 19.127802771665245 -4.136277517187243 0.6968809395407929
head 8.839640275623543 -1.982563530607327 -0.008838831034061911
rclavicle -4.661910881404456E-16 -3.213534703570672E-16
rhumerus -29.14976991345158 -18.066027305143102 -78.08110445912106
rradius 26.612986249198197
rwrist 4.368134248495824
rhand -17.66568668868546 22.539631281007814
rfingers 7.125020000000025
rthumb 8.582987484146939 -7.278666165648303
lclavicle -6.563003916381793E-16 -1.9265525447191326E-16
lhumerus -30.215724272952393 -1.609823621532282 82.28205377333488
lradius 32.516077274477404
lwrist 5.689966504955452
lhand -25.564038686606146 23.914457264172583
lfingers 7.123888114460283
lthumb 0.9553977629802581 53.5255885532841
rfemur -6.2409913763309905 6.165132317416866 29.3698893756468
rtibia 34.776250923051485
rfoot -10.541186654977688 -5.532915566627936
rtoes 4.136755067543581
lfemur -9.760558197384128 -2.613006691184389 -19.44257788386889
ltibia 27.880442034812617
lfoot -10.240991124376649 0.761830251909644
ltoes -3.0941520590215936
